<svg width="262" height="261" viewBox="0 0 262 261" fill="none" xmlns="http://www.w3.org/2000/svg">
<path d="M131.485 139.386C150.754 139.386 159.69 154.014 161.574 174.78C162.018 179.751 161.553 186.994 160.917 195.387C158.752 223.265 156.26 257.521 174.824 257.521C190.52 257.521 198.587 227.4 203.24 193.071C207.734 159.084 202.975 142.172 205.312 127.083C209.773 98.4908 234.735 72.8557 227.024 36.3972C222.754 16.1738 211.62 6.65955 200.585 2.66299C175.174 -6.5862 158.764 11.2352 131.477 11.2352C104.19 11.2352 87.7841 -6.5862 62.3611 2.66299C51.3379 6.65955 40.2046 16.1738 35.9267 36.3972C28.2231 72.8516 53.1731 98.4908 57.6468 127.083C59.9835 142.172 55.2284 159.084 59.7225 193.071C64.3757 227.404 72.4422 257.521 88.1389 257.521C106.69 257.521 104.215 223.265 102.045 195.387C101.409 186.998 100.94 179.751 101.385 174.78C103.261 154.014 112.322 139.386 131.477 139.386H131.485Z" fill="#22777F"/>
</svg>
